<svg width="40" height="40" viewBox="0 0 40 40" fill="none" xmlns="http://www.w3.org/2000/svg">
<rect width="40" height="40" rx="12" fill="#EDEDED"/>
<path d="M29.1667 13.6H25.8333V11.6C25.8333 10.7175 25.0859 10 24.1667 10H15.8333C14.9141 10 14.1667 10.7175 14.1667 11.6V13.6H10.8333C10.3724 13.6 10 13.9575 10 14.4V15.2C10 15.31 10.0937 15.4 10.2083 15.4H11.7812L12.4245 28.475C12.4661 29.3275 13.2005 30 14.0885 30H25.9115C26.8021 30 27.5339 29.33 27.5755 28.475L28.2187 15.4H29.7917C29.9062 15.4 30 15.31 30 15.2V14.4C30 13.9575 29.6276 13.6 29.1667 13.6ZM23.9583 13.6H16.0417V11.8H23.9583V13.6Z" fill="#B1B1B1"/>
</svg>
