<svg width="40" height="40" viewBox="0 0 40 40" fill="none" xmlns="http://www.w3.org/2000/svg">
<rect y="4.57764e-05" width="40" height="40" rx="12" fill="#EDEDED"/>
<path d="M29.3762 13.5401C28.5386 11.8253 26.1258 10.4222 23.3191 11.2391C21.9779 11.6255 20.8078 12.4543 19.9999 13.59C19.1919 12.4543 18.0218 11.6255 16.6806 11.2391C13.8677 10.4346 11.4611 11.8253 10.6235 13.5401C9.44831 15.941 9.93588 18.6412 12.0737 21.5658C13.7489 23.8544 16.143 26.1742 19.6186 28.8682C19.7284 28.9536 19.8637 29 20.003 29C20.1423 29 20.2776 28.9536 20.3874 28.8682C23.8567 26.1805 26.257 23.8794 27.9323 21.5658C30.0638 18.6412 30.5514 15.941 29.3762 13.5401Z" fill="#B1B1B1"/>
</svg>
